<svg width="139" height="30" viewBox="0 0 139 30" fill="none" xmlns="http://www.w3.org/2000/svg">
<path d="M27.3812 6.5296C24.6786 2.58665 20.1414 0 15 0C6.71573 0 0 6.71572 0 15C0 16.2052 0.14215 17.3773 0.410585 18.5003L8.04917 10.8617C8.78141 10.1294 9.96859 10.1294 10.7008 10.8617L16.875 17.0358L27.3812 6.5296Z" fill="#EF2A82"/>
<path d="M29.1641 10.0501L18.2008 21.0133C17.4686 21.7456 16.2814 21.7456 15.5492 21.0133L9.375 14.8392L1.90063 22.3135C4.46662 26.8997 9.37125 30 15 30C23.2843 30 30 23.2843 30 15C30 13.2655 29.7056 11.5998 29.1641 10.0501Z" fill="#EF2A82"/>
<path d="M47.1062 18.792H43.2016L42.5197 21H39.4756L43.8104 9.18066H46.4893L50.8566 21H47.7962L47.1062 18.792ZM43.8835 16.5921H46.4243L45.1498 12.4927L43.8835 16.5921Z" fill="white"/>
<path d="M61.5963 21H58.7632L54.5745 13.6454V21H51.7252V9.18066H54.5745L58.7551 16.5353V9.18066H61.5963V21Z" fill="white"/>
<path d="M70.2578 18.792H66.3532L65.6713 21H62.6272L66.962 9.18066H69.6409L74.0082 21H70.9478L70.2578 18.792ZM67.0351 16.5921H69.5759L68.3015 12.4927L67.0351 16.5921Z" fill="white"/>
<path d="M77.7261 18.8082H82.686V21H74.8768V9.18066H77.7261V18.8082Z" fill="white"/>
<path d="M85.9412 14.311L88.1167 9.18066H91.1933L87.3861 16.7545V21H84.4962V16.7545L80.6971 9.18066H83.7575L85.9412 14.311Z" fill="white"/>
<path d="M101.478 11.3806H97.931V21H95.0817V11.3806H91.5992V9.18066H101.478V11.3806Z" fill="white"/>
<path d="M105.724 21H102.883V9.18066H105.724V21Z" fill="white"/>
<path d="M117.267 16.998C117.229 17.8206 117.008 18.5485 116.602 19.1816C116.196 19.8094 115.625 20.2965 114.889 20.6428C114.158 20.9892 113.322 21.1624 112.38 21.1624C110.827 21.1624 109.604 20.6564 108.711 19.6443C107.818 18.6323 107.372 17.2036 107.372 15.3582V14.7737C107.372 13.6156 107.572 12.6036 107.973 11.7377C108.378 10.8664 108.96 10.1954 109.718 9.72455C110.475 9.24831 111.352 9.01019 112.348 9.01019C113.782 9.01019 114.935 9.38902 115.806 10.1467C116.677 10.8989 117.173 11.938 117.292 13.2639H114.45C114.429 12.5441 114.247 12.0273 113.907 11.7134C113.566 11.3995 113.046 11.2426 112.348 11.2426C111.639 11.2426 111.119 11.5077 110.789 12.0381C110.459 12.5684 110.286 13.4154 110.27 14.5789V15.415C110.27 16.676 110.427 17.577 110.741 18.1182C111.06 18.6594 111.607 18.93 112.38 18.93C113.035 18.93 113.536 18.7758 113.882 18.4673C114.229 18.1588 114.413 17.669 114.434 16.998H117.267Z" fill="white"/>
<path d="M124.711 17.8585C124.711 17.4418 124.562 17.117 124.265 16.8843C123.972 16.6516 123.456 16.4108 122.714 16.1619C121.973 15.9129 121.367 15.6721 120.896 15.4394C119.364 14.6872 118.599 13.6535 118.599 12.3384C118.599 11.6836 118.788 11.1073 119.167 10.6094C119.551 10.1061 120.092 9.71643 120.79 9.44043C121.488 9.15902 122.273 9.01831 123.144 9.01831C123.994 9.01831 124.754 9.16984 125.426 9.4729C126.102 9.77596 126.627 10.2089 127 10.7717C127.374 11.3291 127.56 11.9677 127.56 12.6875H124.719C124.719 12.2059 124.57 11.8324 124.273 11.5673C123.981 11.3021 123.583 11.1695 123.08 11.1695C122.571 11.1695 122.168 11.2831 121.87 11.5104C121.578 11.7323 121.432 12.0164 121.432 12.3628C121.432 12.6659 121.594 12.9419 121.919 13.1908C122.243 13.4343 122.814 13.6887 123.632 13.9539C124.449 14.2136 125.12 14.495 125.645 14.7981C126.922 15.5341 127.56 16.5488 127.56 17.8422C127.56 18.8759 127.171 19.6876 126.392 20.2775C125.612 20.8674 124.543 21.1624 123.185 21.1624C122.227 21.1624 121.359 20.9919 120.579 20.6509C119.805 20.3046 119.221 19.8338 118.826 19.2385C118.436 18.6378 118.241 17.9478 118.241 17.1685H121.099C121.099 17.8016 121.261 18.2698 121.586 18.5728C121.916 18.8705 122.449 19.0193 123.185 19.0193C123.656 19.0193 124.027 18.9192 124.297 18.7189C124.573 18.5133 124.711 18.2265 124.711 17.8585Z" fill="white"/>
</svg>
